<?xml version="1.0" encoding="UTF-8" standalone="no"?>
<svg width="146px" height="59px" viewBox="0 0 146 59" version="1.1" xmlns="http://www.w3.org/2000/svg" xmlns:xlink="http://www.w3.org/1999/xlink" xmlns:sketch="http://www.bohemiancoding.com/sketch/ns">
    <!-- Generator: Sketch 3.2.2 (9983) - http://www.bohemiancoding.com/sketch -->
    <title>shape</title>
    <desc>Created with Sketch.</desc>
    <defs>
        <radialGradient cx="52.4364749%" cy="79.5340634%" fx="52.4364749%" fy="79.5340634%" r="283.05481%" id="radialGradient-1">
            <stop stop-color="#25B099" offset="0%"></stop>
            <stop stop-color="#6C79EB" offset="47.57%"></stop>
            <stop stop-color="#F073A3" offset="85.1%"></stop>
            <stop stop-color="#FFB0A6" offset="100%"></stop>
        </radialGradient>
        <radialGradient cx="-79.961655%" cy="96.0517567%" fx="-79.961655%" fy="96.0517567%" r="422.882634%" id="radialGradient-2">
            <stop stop-color="#25B099" offset="0%"></stop>
            <stop stop-color="#6C79EB" offset="47.57%"></stop>
            <stop stop-color="#F073A3" offset="85.1%"></stop>
            <stop stop-color="#FFB0A6" offset="100%"></stop>
        </radialGradient>
        <radialGradient cx="-205.757%" cy="139.881081%" fx="-205.757%" fy="139.881081%" r="459.549153%" id="radialGradient-3">
            <stop stop-color="#25B099" offset="0%"></stop>
            <stop stop-color="#6C79EB" offset="47.57%"></stop>
            <stop stop-color="#F073A3" offset="85.1%"></stop>
            <stop stop-color="#FFB0A6" offset="100%"></stop>
        </radialGradient>
        <radialGradient cx="-286.535861%" cy="86.7337135%" fx="-286.535861%" fy="86.7337135%" r="597.121594%" id="radialGradient-4">
            <stop stop-color="#25B099" offset="0%"></stop>
            <stop stop-color="#6C79EB" offset="47.57%"></stop>
            <stop stop-color="#F073A3" offset="85.1%"></stop>
            <stop stop-color="#FFB0A6" offset="100%"></stop>
        </radialGradient>
        <radialGradient cx="-486.94928%" cy="96.1981918%" fx="-486.94928%" fy="96.1981918%" r="697.086071%" id="radialGradient-5">
            <stop stop-color="#25B099" offset="0%"></stop>
            <stop stop-color="#6C79EB" offset="47.57%"></stop>
            <stop stop-color="#F073A3" offset="85.1%"></stop>
            <stop stop-color="#FFB0A6" offset="100%"></stop>
        </radialGradient>
        <radialGradient cx="-863.585502%" cy="96.2767742%" fx="-863.585502%" fy="96.2767742%" r="1006.95207%" id="radialGradient-6">
            <stop stop-color="#25B099" offset="0%"></stop>
            <stop stop-color="#6C79EB" offset="47.57%"></stop>
            <stop stop-color="#F073A3" offset="85.1%"></stop>
            <stop stop-color="#FFB0A6" offset="100%"></stop>
        </radialGradient>
    </defs>
    <g id="Page-2" stroke="none" stroke-width="1" fill="none" fill-rule="evenodd" sketch:type="MSPage">
        <g id="footer" sketch:type="MSArtboardGroup" transform="translate(-292.000000, -1195.000000)">
            <g sketch:type="MSLayerGroup" transform="translate(0.000000, 1026.000000)" id="shape">
                <g transform="translate(292.250000, 169.250000)" sketch:type="MSShapeGroup">
                    <path d="M35.0096386,15.2054054 C32.2668675,13.6900901 29.3319277,12.6276276 25.2614458,11.9483483 C24.7198795,11.8612613 24.353012,11.3561562 24.353012,10.8162162 L24.353012,2.61261261 L24.353012,1.06246246 C24.353012,0.226426426 23.3222892,-0.139339339 22.7807229,0.487687688 C22.7108434,0.557357357 22.6409639,0.644444444 22.5885542,0.696696697 C22.3090361,0.957957958 22.0295181,1.21921922 21.7150602,1.4978979 C21.610241,1.58498498 21.5578313,1.61981982 21.5578313,1.61981982 L21.5578313,1.63723724 C19.9855422,3.08288288 18.0813253,4.75495495 15.8451807,6.53153153 C7.80903614,12.975976 -1.81686747,19.9777778 0.524096386,31.7867868 C2.2186747,40.3039039 11.7746988,45.9297297 19.8283133,46.9747748 C20.0728916,47.0096096 20.3,47.027027 20.5445783,47.0618619 C21.0162651,47.1141141 21.3831325,47.5147147 21.3831325,47.984985 L21.4180723,56.3975976 L21.4180723,56.5195195 C21.4180723,57.3207207 22.0644578,57.9825826 22.8855422,57.9825826 C23.7066265,57.9825826 24.353012,57.3381381 24.353012,56.5195195 L24.353012,56.3975976 L24.3879518,48.0024024 C24.3879518,47.5147147 24.7548193,47.1141141 25.2439759,47.0792793 C34.8,46.3129129 45.1945783,40.5477477 44.95,30.0624625 C44.7403614,22.781982 40.0759036,17.9921922 35.0096386,15.2054054 L35.0096386,15.2054054 Z M21.3831325,43.3171171 C21.3831325,43.8744745 20.9114458,44.2924925 20.3524096,44.2402402 C15.6006024,43.7525526 10.726506,41.436036 7.35481928,38.0570571 C4.07048193,34.7651652 2.8126506,30.3237237 3.4939759,26.0564565 C3.59879518,25.3597598 4.1753012,24.8198198 4.87409639,24.7501502 C7.44216867,24.4540541 10.0451807,24.6630631 12.5084337,25.3771772 C15.5481928,26.248048 17.8891566,27.7111111 19.6361446,29.1567568 C20.7542169,30.0798799 21.3831325,31.4732733 21.3831325,32.9189189 L21.3831325,43.3171171 L21.3831325,43.3171171 Z M21.3831325,25.1507508 C21.3831325,25.7951952 20.6493976,26.160961 20.1253012,25.7951952 C18.3084337,24.5063063 16.0548193,23.3045045 13.3120482,22.5207207 C11.1457831,21.8936937 8.89216867,21.615015 6.63855422,21.6672673 C5.85240964,21.6846847 5.36325301,20.8138138 5.8,20.151952 L5.81746988,20.1345345 C9.11927711,15.1531532 14.3427711,11.8438438 18.85,8.06426426 C19.3216867,7.68108108 19.7759036,7.2978979 20.1951807,6.91471471 C20.6493976,6.51411411 21.3656627,6.84504505 21.3656627,7.45465465 L21.3656627,25.1507508 L21.3831325,25.1507508 Z M41.6481928,32.3963964 C40.8096386,37.9177177 36.6692771,41.1921922 31.6379518,42.7945946 C29.2445783,43.560961 27.0608434,43.9441441 25.3837349,44.1357357 C24.8246988,44.2054054 24.353012,43.76997 24.353012,43.2126126 L24.353012,16.3027027 C24.353012,15.7279279 24.8771084,15.4318318 25.4536145,15.4144144 C27.4975904,15.396997 30.8168675,16.563964 32.4590361,17.2954955 C38.5036145,19.9951952 42.6963855,25.4642643 41.6481928,32.3963964 L41.6481928,32.3963964 Z" id="XMLID_142_" fill="url(#radialGradient-1)"></path>
                    <path d="M62.6120482,14.2474474 C54.3487952,14.2474474 47.6228916,21.7021021 47.6228916,30.8636637 C47.6228916,40.0252252 54.3487952,47.4624625 62.6120482,47.4624625 C70.8753012,47.4624625 77.6012048,40.0078078 77.6012048,30.8636637 C77.6012048,21.7195195 70.8753012,14.2474474 62.6120482,14.2474474 L62.6120482,14.2474474 Z M62.6120482,44.4144144 C56.0433735,44.4144144 50.6975904,38.3357357 50.6975904,30.8636637 C50.6975904,23.3915916 56.0433735,17.2954955 62.6120482,17.2954955 C69.1807229,17.2954955 74.526506,23.3741742 74.526506,30.8636637 C74.526506,38.3531532 69.1807229,44.4144144 62.6120482,44.4144144 L62.6120482,44.4144144 Z" id="XMLID_153_" fill="url(#radialGradient-2)"></path>
                    <path d="M102.98494,16.5291291 C101.360241,15.3447447 98.6174699,14.0036036 94.7391566,14.2474474 C88.6246988,14.6306306 84.1698795,19.193994 82.213253,22.990991 C79.3831325,28.4600601 80.5710843,33.842042 81.2349398,35.9495495 C81.3048193,36.1933934 81.4445783,36.4372372 81.636747,36.6114114 C81.9337349,36.9075075 82.3180723,37.0468468 82.7198795,37.0468468 C82.9295181,37.0468468 83.1391566,37.012012 83.3313253,36.9249249 L107.090361,26.5267267 C107.719277,26.248048 108.086145,25.5861862 107.981325,24.9069069 C107.736747,23.3045045 106.775904,19.2810811 102.98494,16.5291291 L102.98494,16.5291291 Z M104.033133,24.5237237 L84.4319277,33.0930931 C84.0650602,33.2498498 83.663253,33.0234234 83.6108434,32.6228228 C83.3138554,30.4456456 83.3487952,27.415015 84.9385542,24.366967 C86.5283133,21.2840841 90.1096386,17.5741742 94.9487952,17.2780781 C95.1933735,17.2606607 95.4379518,17.2606607 95.6650602,17.2606607 C98.2506024,17.2606607 100.08494,18.1837838 101.203012,18.984985 C103.054819,20.3261261 103.998193,22.1201201 104.487349,23.4960961 C104.627108,23.9141141 104.41747,24.366967 104.033133,24.5237237 L104.033133,24.5237237 Z" id="XMLID_156_" fill="url(#radialGradient-3)"></path>
                    <path d="M103.840964,43.6132132 C101.46506,44.1705706 97.7614458,44.5537538 93.6210843,43.2996997 C91.1927711,42.5681682 88.9566265,41.3663664 86.9825301,39.7465465 C86.3361446,39.2066066 85.3578313,39.3111111 84.8337349,39.9555556 C84.2921687,40.6 84.396988,41.5753754 85.0433735,42.0978979 C87.3319277,43.9615616 89.9174699,45.354955 92.7301205,46.2084084 C95.0885542,46.9225225 97.3072289,47.1837838 99.2987952,47.1837838 C101.360241,47.1837838 103.142169,46.9051051 104.539759,46.5915916 C105.360843,46.4 105.86747,45.5813814 105.675301,44.7627628 C105.483133,43.9441441 104.662048,43.439039 103.840964,43.6132132 L103.840964,43.6132132 Z" id="XMLID_157_" fill="url(#radialGradient-4)"></path>
                    <path d="M130.342771,28.1117117 C130.377711,27.9897898 130.395181,27.8504505 130.395181,27.7111111 C130.237952,21.2144144 129.678916,18.8282282 127.879518,17.0864865 C126.481928,15.7279279 124.944578,15.3621622 124.437952,15.2228228 C121.625301,14.5435435 118.498193,15.5885886 115.755422,17.9921922 C115.598193,18.1315315 115.353614,18.027027 115.353614,17.818018 L115.353614,16.2852853 C115.353614,15.4492492 114.724699,14.7177177 113.886145,14.6654655 C112.977711,14.6132132 112.209036,15.3273273 112.209036,16.233033 L112.209036,45.772973 C112.209036,46.609009 112.837952,47.3405405 113.676506,47.3927928 C114.58494,47.445045 115.353614,46.7309309 115.353614,45.8252252 L115.353614,23.2174174 C115.353614,23.0780781 115.388554,22.9561562 115.475904,22.8516517 C115.493373,22.8342342 115.510843,22.7993994 115.528313,22.781982 C117.974096,19.403003 121.171084,17.5915916 123.704217,18.2012012 C124.036145,18.2882883 124.944578,18.4972973 125.730723,19.2636637 C126.674096,20.1867868 127.180723,21.7543544 127.320482,27.7807808 C127.320482,27.9027027 127.337952,28.0072072 127.372892,28.1117117 L127.372892,28.1117117 C127.337952,28.2336336 127.320482,28.3555556 127.320482,28.4774775 L127.250602,44.7627628 C127.250602,45.5987988 127.931928,46.3129129 128.770482,46.3129129 L128.770482,46.3129129 C129.609036,46.3129129 130.290361,45.6336336 130.290361,44.7975976 L130.360241,28.4774775 C130.395181,28.3555556 130.377711,28.2336336 130.342771,28.1117117 L130.342771,28.1117117 L130.342771,28.1117117 Z" id="XMLID_158_" fill="url(#radialGradient-5)"></path>
                    <path d="M144.96506,27.4324324 C144.96506,27.3627628 144.96506,27.3105105 144.94759,27.2408408 C144.772892,21.0750751 144.196386,18.7585586 142.449398,17.0690691 C141.086747,15.7279279 139.357229,15.2924925 139.007831,15.2054054 C136.404819,14.5261261 134.133735,15.3447447 133.38253,15.6234234 C132.561446,15.9195195 132.142169,16.8600601 132.509036,17.6612613 C132.840964,18.4102102 133.714458,18.7411411 134.483133,18.4624625 C135.409036,18.1315315 136.789157,17.7657658 138.274096,18.1489489 L138.343976,18.1663664 C138.361446,18.1663664 139.514458,18.4276276 140.335542,19.2288288 C141.278916,20.1345345 141.768072,21.7021021 141.925301,27.6936937 L141.855422,45.8078078 C141.855422,46.6438438 142.536747,47.357958 143.375301,47.357958 L143.375301,47.357958 C144.213855,47.357958 144.895181,46.6786787 144.895181,45.8426426 L144.96506,27.7111111 L144.96506,27.6762763 L144.96506,27.6588589 L144.96506,27.4324324 L144.96506,27.4324324 Z" id="XMLID_159_" fill="url(#radialGradient-6)"></path>
                </g>
            </g>
        </g>
    </g>
</svg>